<?xml version="1.0" encoding="UTF-8" standalone="no"?>
<!-- Created with Inkscape (http://www.inkscape.org/) -->

<svg
   xmlns:dc="http://purl.org/dc/elements/1.1/"
   xmlns:cc="http://creativecommons.org/ns#"
   xmlns:rdf="http://www.w3.org/1999/02/22-rdf-syntax-ns#"
   xmlns:svg="http://www.w3.org/2000/svg"
   xmlns="http://www.w3.org/2000/svg"
   xmlns:sodipodi="http://sodipodi.sourceforge.net/DTD/sodipodi-0.dtd"
   xmlns:inkscape="http://www.inkscape.org/namespaces/inkscape"
   version="1.1"
   id="svg2"
   width="900"
   height="1000"
   viewBox="0 0 900.00001 1000"
   sodipodi:docname="logo_extinction_rebellion_vertical.svg"
   inkscape:version="0.92.3 (2405546, 2018-03-11)">
  <metadata
     id="metadata8">
    <rdf:RDF>
      <cc:Work
         rdf:about="">
        <dc:format>image/svg+xml</dc:format>
        <dc:type
           rdf:resource="http://purl.org/dc/dcmitype/StillImage" />
        <dc:title />
      </cc:Work>
    </rdf:RDF>
  </metadata>
  <defs
     id="defs6" />
  <sodipodi:namedview
     pagecolor="#ffffff"
     bordercolor="#666666"
     borderopacity="1"
     objecttolerance="10"
     gridtolerance="10"
     guidetolerance="10"
     inkscape:pageopacity="0"
     inkscape:pageshadow="2"
     inkscape:window-width="1366"
     inkscape:window-height="713"
     id="namedview4"
     showgrid="false"
     inkscape:zoom="0.36"
     inkscape:cx="443.64745"
     inkscape:cy="462.5956"
     inkscape:window-x="0"
     inkscape:window-y="0"
     inkscape:window-maximized="1"
     inkscape:current-layer="svg2"
     showguides="true"
     inkscape:guide-bbox="true"
     inkscape:snap-text-baseline="true"
     inkscape:snap-object-midpoints="true"
     inkscape:snap-center="true"
     inkscape:snap-bbox="true"
     inkscape:bbox-paths="true"
     inkscape:bbox-nodes="true"
     inkscape:snap-bbox-edge-midpoints="true"
     inkscape:snap-bbox-midpoints="true"
     inkscape:object-paths="true"
     inkscape:snap-intersection-paths="true"
     units="px"
     fit-margin-top="0"
     fit-margin-left="0"
     fit-margin-right="0"
     fit-margin-bottom="0" />
  <g
     id="g1124"
     transform="translate(3121.3911,-4493.3259)"
     style="fill:#ffffff;fill-opacity:1">
    <g
       aria-label="extinction"
       style="font-style:normal;font-variant:normal;font-weight:normal;font-stretch:normal;font-size:50.01758575px;line-height:1.25;font-family:'Futura Condensed';-inkscape-font-specification:'Futura Condensed, ';letter-spacing:-1.20000005px;word-spacing:0px;fill:#ffffff;fill-opacity:1;stroke:none;stroke-width:1.33975685"
       id="text1102" />
    <g
       aria-label="rebellion"
       style="font-style:normal;font-variant:normal;font-weight:normal;font-stretch:normal;font-size:50.01758575px;line-height:1.25;font-family:'Futura Condensed';-inkscape-font-specification:'Futura Condensed, ';letter-spacing:-0.2px;word-spacing:0px;fill:#ffffff;fill-opacity:1;stroke:none;stroke-width:1.33975685"
       id="g1122" />
  </g>
  <g
     id="g899"
     transform="translate(-116.92911,-66.929132)">
    <g
       id="g837"
       style="fill:#000000;fill-opacity:1"
       transform="matrix(3.4693526,0,0,3.4693526,2559.2552,860.62874)">
      <path
         inkscape:connector-curvature="0"
         id="path833"
         transform="translate(-96.931506,194.35028)"
         d="m -586.27344,-240.43359 v 55.3457 l 141.13477,-15.33203 c -5.47774,-1.34697 -7.05664,-7.15392 -7.05664,-12.81055 0,-6.45227 2.05086,-13.1543 9.60351,-13.1543 7.55266,0 9.60352,6.70203 9.60352,13.1543 0,4.90567 -1.1924,9.91762 -5.08008,12.04297 l 7.2793,-0.79102 v -23.90625 h 7.05273 v 3.90039 h 0.0996 c 0.95033,-2.40084 3.1006,-4.40039 5.85156,-4.40039 5.20183,0 4.75196,5.80185 4.75196,9.45313 v 13.02539 l 28.36914,-3.08203 v -33.44531 z m 69.01172,2.54297 c 2.45086,0 4.35156,2.15189 4.35156,4.55273 0,2.40084 -2.04914,4.45117 -4.5,4.45117 -2.45086,0 -4.45312,-2.0499 -4.45312,-4.55078 0,-2.5509 2.05067,-4.45312 4.60156,-4.45312 z m 59.4961,0 c 2.45087,0 4.35156,2.15189 4.35156,4.55273 0,2.40084 -2.0511,4.45117 -4.50196,4.45117 -2.45086,0 -4.45117,-2.0499 -4.45117,-4.55078 0,-2.5509 2.05061,-4.45312 4.60157,-4.45312 z m -75.13086,5.00195 h 7.05273 v 7.0039 h 2.90039 v 5.80079 h -2.90039 v 19.45703 h -7.05273 v -19.45703 h -2.45118 v -5.80079 h 2.45118 z m 59.125,0 h 7.05273 v 7.0039 h 2.90039 v 5.80079 h -2.90039 v 19.45703 h -7.05273 v -19.45703 h -2.45118 v -5.80079 h 2.45118 z m -93.19532,6.5039 c 4.65164,0 8.95288,4.15072 8.55274,12.10352 l -0.15039,2.90039 h -11.1543 c 0.05,1.85065 -0.0486,5.85156 2.65234,5.85156 1.80063,0 2.25,-1.39986 2.25,-2.90039 h 6.00196 c -0.60021,4.65164 -2.85015,8.30274 -8.00196,8.30274 -7.15252,0 -9.70312,-6.35132 -9.70312,-12.60352 0,-6.05213 2.20015,-13.6543 9.55273,-13.6543 z m 68.73242,0 c 5.20185,0 4.75196,5.80185 4.75196,9.45313 v 16.30469 h -7.05274 v -13.85547 c 0,-1.30046 0.5008,-4.80078 -1.75,-4.80078 -1.60056,0 -1.90234,1.64995 -1.90234,2.90039 v 15.75586 h -7.05078 v -25.25782 h 7.05078 v 3.90039 h 0.10156 c 0.95034,-2.40084 3.10061,-4.40039 5.85156,-4.40039 z m 16.7168,0 c 1.25044,0 2.35151,0.24983 3.50196,0.75 v 6.20118 c -0.65023,-0.60021 -1.20049,-0.80079 -2.05079,-0.80079 -3.45121,0 -4.20117,4.153 -4.20117,6.75391 0,2.70095 0.55031,6.75195 4.10156,6.75195 0.80028,0 1.50015,-0.29984 2.1504,-0.75 v 6.45118 c -1.30046,0.60021 -2.60028,0.90039 -4.05079,0.90039 -6.85241,0 -9.2539,-7.20111 -9.2539,-12.95313 0,-6.35223 2.50016,-13.30469 9.80273,-13.30469 z m -75.57226,0.5 h 7.30273 l 2,3.85157 0.75,1.54882 2.85156,-5.40039 h 7.30274 l -6.45117,11.6543 7.45117,13.60352 h -7.45117 l -3.70313,-6.95117 -3.75,6.95117 h -7.25391 l 7.25391,-13.60352 z m 36.17773,0 h 7.05273 v 25.25782 h -7.05273 z m 59.49414,0 h 7.05274 v 25.25782 h -7.05274 z m -105.64844,4.90039 c -2.15076,10e-6 -2.60156,2.9014 -2.60156,4.50196 v 0.75 h 5.15235 v -0.59961 c 0,-1.65058 -0.35002,-4.65235 -2.55079,-4.65235 z m 124.47461,0.95118 c -2.45086,0 -2.55078,5.35222 -2.55078,6.80273 0,1.45051 0.0999,6.80274 2.55078,6.80274 2.45086,0 2.55078,-5.35223 2.55078,-6.80274 0,-1.45051 -0.0999,-6.80273 -2.55078,-6.80273 z m 20.75586,0.75 c -1.60056,0 -1.90039,1.64995 -1.90039,2.90039 v 13.63867 l 3.65039,-0.39648 v -11.3418 c 0,-1.30046 0.50079,-4.80078 -1.75,-4.80078 z"
         style="opacity:1;fill:#000000;fill-opacity:1;fill-rule:evenodd;stroke:#e1e1e1;stroke-width:0;stroke-miterlimit:4;stroke-dasharray:none;stroke-opacity:0.99215686" />
      <path
         inkscape:connector-curvature="0"
         id="path835"
         transform="translate(-96.931506,194.35028)"
         d="m -368.39258,-203.62109 -60.85351,6.60937 v 42.15625 h -7.05274 v -41.38867 l -3.29883,0.35742 v 41.03125 h -7.05273 v -40.26367 l -34.94531,3.79492 v 14.31055 h 0.10156 c 0.80028,-2.05072 2.40037,-3.60156 4.70117,-3.60156 5.9521,0 6.75195,8.75393 6.75195,13.10546 0,4.05143 -1.05071,13.1543 -6.80273,13.1543 -2.30081,0 -3.75007,-1.45089 -4.65039,-3.35156 h -0.10156 v 2.85156 h -7.05078 v -35.70117 l -81.35743,8.83594 v 33.44336 h 201.61133 z m -53.95508,11.50195 c 2.45086,0 4.35157,2.15189 4.35157,4.55273 0,2.40085 -2.0511,4.45118 -4.50196,4.45118 -2.45086,0 -4.45117,-2.05186 -4.45117,-4.55274 0,-2.5509 2.05066,-4.45117 4.60156,-4.45117 z m -89.43359,11.05469 v 6.85156 c -0.35012,-0.05 -0.69947,-0.0996 -1.09961,-0.0996 -4.70167,0 -4.75195,3.10024 -4.75195,6.85156 v 12.60547 h -7.05274 v -25.25976 h 7.05274 v 3.05078 h 0.0996 c 1.30046,-2.20078 3.00098,-3.74992 5.75195,-4 z m 11.72656,0.44922 c 4.65164,0 8.95288,4.15267 8.55274,12.10546 l -0.15039,2.90039 h -11.15235 c 0.05,1.85065 -0.0506,5.85157 2.65039,5.85157 1.80063,0 2.25,-1.39987 2.25,-2.90039 h 6.00196 c -0.60021,4.65163 -2.85014,8.30273 -8.00196,8.30273 -7.15251,0 -9.70312,-6.35327 -9.70312,-12.60547 0,-6.05213 2.20015,-13.65429 9.55273,-13.65429 z m 41.99805,0 c 4.65164,0 8.95287,4.15267 8.55273,12.10546 l -0.15039,2.90039 h -11.15429 c 0.05,1.85065 -0.0486,5.85157 2.65234,5.85157 1.80064,0 2.25,-1.39987 2.25,-2.90039 h 6.00195 c -0.60021,4.65163 -2.85014,8.30273 -8.00195,8.30273 -7.15251,0 -9.7031,-6.35327 -9.70313,-12.60547 0,-6.05213 2.20015,-13.65429 9.55274,-13.65429 z m 51.51367,0 c 7.55266,0 9.60352,6.70202 9.60352,13.15429 0,6.45227 -2.05086,13.10547 -9.60352,13.10547 -7.55265,0 -9.60351,-6.6532 -9.60351,-13.10547 0,-6.45227 2.05086,-13.15429 9.60351,-13.15429 z m 25.4375,0 c 5.20183,0 4.75195,5.80184 4.75195,9.45312 v 16.30664 h -7.05273 v -13.85547 c 0,-1.30045 0.49884,-4.80078 -1.75195,-4.80078 -1.60056,0 -1.90039,1.64995 -1.90039,2.90039 v 15.75586 h -7.05274 v -25.25976 h 7.05274 v 3.90234 h 0.0996 c 0.95033,-2.40084 3.10255,-4.40234 5.85351,-4.40234 z m -44.89258,0.5 h 7.05274 v 25.25976 h -7.05274 z m -74.15625,4.90234 c -2.15076,0 -2.60156,2.90139 -2.60156,4.50195 v 0.75 h 5.15234 v -0.59961 c 0,-1.65058 -0.35001,-4.65234 -2.55078,-4.65234 z m 41.99805,0 c -2.15075,0 -2.60156,2.90139 -2.60156,4.50195 v 0.75 h 5.15234 v -0.59961 c 0,-1.65058 -0.35,-4.65234 -2.55078,-4.65234 z m -21.4375,0.84961 c -2.40084,0 -2.50195,5.35341 -2.50195,6.7539 0,1.35048 0.15036,6.80079 2.45117,6.80079 2.40085,0 2.55078,-5.20022 2.55078,-6.80079 0,-1.4505 -0.19919,-6.7539 -2.5,-6.7539 z m 73.05078,0.10156 c -2.45086,0 -2.55078,5.35027 -2.55078,6.80078 0,1.45051 0.0999,6.80274 2.55078,6.80274 2.45086,0 2.55078,-5.35223 2.55078,-6.80274 0,-1.45051 -0.0999,-6.80078 -2.55078,-6.80078 z"
         style="opacity:1;fill:#000000;fill-opacity:1;fill-rule:evenodd;stroke:#e1e1e1;stroke-width:0;stroke-miterlimit:4;stroke-dasharray:none;stroke-opacity:0.99215686" />
    </g>
    <g
       id="g843"
       transform="matrix(1.9752445,0,0,1.9752445,305.62063,38.371573)"
       style="fill:#0c0000;fill-opacity:1">
      <path
         style="opacity:1;fill:#0c0000;fill-opacity:1;stroke-width:0.40507537"
         d="M 132.29135,37.977412 A 126.73073,126.73073 0 0 0 5.5607842,164.7079 126.73073,126.73073 0 0 0 132.29135,291.43918 126.73073,126.73073 0 0 0 259.02266,164.7079 126.73073,126.73073 0 0 0 132.29135,37.977412 Z m 0,18.438882 A 108.29185,108.29185 0 0 1 240.58378,164.7079 108.29185,108.29185 0 0 1 132.29135,273.00037 108.29185,108.29185 0 0 1 23.999744,164.7079 108.29185,108.29185 0 0 1 132.29135,56.416294 Z"
         id="path839"
         inkscape:connector-curvature="0" />
      <path
         style="opacity:1;fill:#0c0000;fill-opacity:1;stroke:none;stroke-width:0.40975291px;stroke-linecap:butt;stroke-linejoin:miter;stroke-opacity:1"
         d="M 215.08784,83.800123 49.495694,84.088222 120.1276,164.70867 49.495694,245.32838 215.08784,245.61659 144.41828,164.70867 Z M 89.706681,102.22067 h 84.730799 l -42.36542,48.73177 z m 42.585459,76.3717 42.36542,48.73177 H 89.925942 Z"
         id="path841"
         inkscape:connector-curvature="0" />
    </g>
  </g>
</svg>
